<svg width="160" height="160" viewBox="0 0 160 160" fill="none" xmlns="http://www.w3.org/2000/svg">
  <path d="M142.075 80.7002L142.519 80.7451C144.253 80.9201 145.522 81.534 146.324 82.5866C147.126 83.6393 147.452 84.9187 147.301 86.4248C147.151 87.9261 146.578 89.1124 145.583 89.9836C144.587 90.8598 143.222 91.2103 141.487 91.0353L141.043 90.9904C139.304 90.8149 138.033 90.1984 137.231 89.1409C136.429 88.0882 136.103 86.8112 136.254 85.31C136.404 83.8087 136.977 82.62 137.973 81.7439C138.968 80.8726 140.335 80.5247 142.075 80.7002ZM141.927 82.1723C140.581 82.0365 139.53 82.2691 138.773 82.8699C138.015 83.4756 137.581 84.3299 137.471 85.4328C137.36 86.5356 137.616 87.4571 138.239 88.1972C138.861 88.9421 139.845 89.3825 141.191 89.5183L141.635 89.5632C142.976 89.6985 144.023 89.4631 144.775 88.8569C145.532 88.256 145.966 87.4042 146.077 86.3013C146.187 85.1984 145.932 84.2745 145.309 83.5296C144.692 82.79 143.712 82.3525 142.371 82.2172L141.927 82.1723Z" fill="white"/>
  <path d="M139.196 93.0952L139.414 93.1597C140.528 93.4901 141.329 94.1224 141.817 95.0566C142.31 95.9922 142.369 97.097 141.994 98.371C141.645 99.556 141.114 100.374 140.401 100.825C139.691 101.281 139.006 101.412 138.346 101.216L138.304 101.204L138.716 99.8054L138.758 99.8179C139.198 99.9484 139.606 99.8859 139.981 99.6306C140.357 99.3753 140.662 98.8495 140.896 98.0532C141.17 97.1258 141.123 96.3684 140.756 95.781C140.39 95.1936 139.806 94.7812 139.006 94.5438L138.788 94.4792C137.988 94.2419 137.274 94.2697 136.648 94.5629C136.023 94.856 135.574 95.4639 135.302 96.3867C135.066 97.1876 135.034 97.7969 135.206 98.2147C135.383 98.6338 135.694 98.9093 136.139 99.0412L136.181 99.0537L135.769 100.452L135.727 100.439C135.067 100.244 134.56 99.7598 134.207 98.988C133.858 98.2222 133.857 97.2468 134.206 96.0618C134.582 94.7878 135.227 93.8919 136.143 93.3742C137.064 92.8578 138.082 92.7648 139.196 93.0952Z" fill="white"/>
  <path d="M139.058 103.32L140.051 103.79L136.767 110.769L135.774 110.298L137.115 107.449L131.165 104.63L131.767 103.351L137.717 106.17L139.058 103.32Z" fill="white"/>
  <path d="M131.253 109.66C131.911 110.107 132.228 110.733 132.203 111.537C132.178 112.341 131.812 113.267 131.103 114.315L129.803 116.239L130.233 116.531C130.685 116.839 131.102 116.919 131.485 116.772C131.871 116.627 132.274 116.245 132.692 115.627C133.086 115.044 133.302 114.541 133.34 114.119C133.383 113.698 133.248 113.383 132.938 113.171L132.895 113.142L133.691 111.965L133.727 111.99C134.333 112.402 134.624 112.978 134.601 113.718C134.575 114.463 134.235 115.318 133.582 116.285C132.95 117.22 132.275 117.809 131.557 118.052C130.842 118.298 130.134 118.182 129.431 117.704L126.537 115.734C126.274 115.556 126.011 115.409 125.747 115.294C125.487 115.182 125.239 115.108 125.004 115.072L124.907 115.006L125.67 113.878C125.815 113.882 125.987 113.91 126.187 113.964C126.387 114.017 126.573 114.094 126.747 114.194C126.596 113.825 126.569 113.355 126.666 112.784C126.764 112.212 127.042 111.587 127.502 110.907C128.068 110.07 128.674 109.543 129.321 109.328C129.971 109.115 130.616 109.226 131.253 109.66ZM130.522 110.872C130.135 110.608 129.757 110.549 129.388 110.693C129.019 110.838 128.635 111.206 128.235 111.796C127.828 112.399 127.617 113.038 127.603 113.713C127.592 114.391 127.761 114.848 128.108 115.085L128.986 115.682L130.188 113.904C130.674 113.184 130.949 112.565 131.011 112.046C131.073 111.527 130.91 111.136 130.522 110.872Z" fill="white"/>
  <path d="M129.47 121.585L128.502 122.615L126.172 120.41L123.132 123.643L125.461 125.848L124.493 126.878L118.913 121.596L119.882 120.567L122.334 122.888L125.374 119.654L122.922 117.333L123.891 116.303L129.47 121.585Z" fill="white"/>
  <path d="M122.174 129.021L121.054 129.883L119.105 127.335L115.588 130.043L117.537 132.591L116.416 133.453L111.749 127.35L112.87 126.488L114.921 129.17L118.438 126.462L116.387 123.78L117.507 122.918L122.174 129.021Z" fill="white"/>
  <path d="M109.83 128.481L113.777 135.073L112.566 135.802L108.62 129.211L109.83 128.481ZM115.1 136.884C115.233 137.106 115.279 137.329 115.237 137.554C115.193 137.785 115.044 137.978 114.789 138.132C114.538 138.283 114.301 138.323 114.076 138.253C113.855 138.187 113.678 138.043 113.545 137.821C113.412 137.599 113.368 137.374 113.414 137.147C113.463 136.924 113.61 136.738 113.857 136.589C114.108 136.438 114.345 136.392 114.568 136.452C114.79 136.517 114.967 136.661 115.1 136.884Z" fill="white"/>
  <path d="M102.69 129.087L106.411 139.151L105.203 139.6L104.755 138.579L104.734 138.587C104.607 139.004 104.344 139.417 103.943 139.827C103.545 140.241 103.02 140.569 102.37 140.811C101.272 141.22 100.269 141.202 99.3605 140.759C98.4538 140.32 97.8057 139.574 97.4163 138.521L97.3375 138.308C96.9481 137.254 96.9559 136.261 97.3608 135.329C97.7629 134.403 98.5108 133.737 99.6045 133.33C100.254 133.088 100.845 132.982 101.377 133.014C101.91 133.045 102.375 133.171 102.775 133.392L101.365 129.58L102.69 129.087ZM103.26 134.705C102.95 134.429 102.533 134.232 102.011 134.114C101.49 134.001 100.932 134.055 100.337 134.276C99.4402 134.61 98.8721 135.087 98.633 135.708C98.3893 136.33 98.4105 137.028 98.6967 137.802L98.7754 138.015C99.0599 138.784 99.4967 139.325 100.086 139.637C100.67 139.951 101.411 139.941 102.308 139.607C102.903 139.386 103.361 139.062 103.682 138.635C104 138.214 104.189 137.795 104.248 137.377L103.26 134.705Z" fill="white"/>
  <path d="M95.3584 138.923L95.3983 139.147C95.6023 140.291 95.3816 141.293 94.7364 142.153C94.0872 143.018 93.1114 143.568 91.809 143.802C90.5066 144.036 89.4038 143.859 88.5006 143.272C87.5935 142.691 87.0379 141.828 86.834 140.684L86.7941 140.46C86.5901 139.316 86.8127 138.311 87.4619 137.446C88.1071 136.586 89.081 136.039 90.3834 135.805C91.6858 135.572 92.7906 135.745 93.6977 136.327C94.6009 136.914 95.1545 137.779 95.3584 138.923ZM93.9781 139.402L93.9383 139.178C93.7926 138.361 93.434 137.741 92.8626 137.318C92.2863 136.895 91.5272 136.768 90.5852 136.937C89.6384 137.107 88.9702 137.49 88.5804 138.086C88.1906 138.682 88.0686 139.388 88.2143 140.206L88.2541 140.429C88.3998 141.246 88.7584 141.866 89.3298 142.29C89.9013 142.713 90.6604 142.84 91.6072 142.67C92.5492 142.501 93.2174 142.118 93.612 141.521C94.0018 140.925 94.1238 140.219 93.9781 139.402Z" fill="white"/>
  <path d="M83.059 140.801L83.0599 140.574C83.0628 139.827 82.8235 139.196 82.3421 138.681C81.8557 138.171 81.1267 137.915 80.1551 137.911C79.1981 137.907 78.4769 138.161 77.9915 138.672C77.5012 139.182 77.2547 139.811 77.2518 140.558L77.2509 140.785C77.248 141.533 77.4898 142.161 77.9761 142.671C78.4575 143.185 79.1767 143.444 80.1338 143.448C81.1054 143.452 81.8364 143.198 82.3267 142.687C82.812 142.177 83.0561 141.548 83.059 140.801ZM79.7998 144.597C78.5595 144.592 77.5819 144.236 76.8668 143.531C76.1517 142.83 75.7964 141.913 75.8007 140.78L75.8016 140.545C75.806 139.403 76.2051 138.484 76.9988 137.789C77.7876 137.099 78.8411 136.756 80.1595 136.761C81.5316 136.766 82.602 137.117 83.3708 137.814C84.1396 138.515 84.5209 139.669 84.5147 141.275L84.5129 141.736C84.5059 143.558 84.171 144.938 83.5082 145.878C82.8405 146.818 81.625 147.382 79.8616 147.571C78.6599 147.698 77.9832 147.8 77.8316 147.878C77.6799 147.96 77.594 148.07 77.5739 148.206L76.3142 148.201C76.37 147.65 76.5962 147.233 76.9928 146.951C77.3894 146.675 78.2398 146.475 79.544 146.353C81.0142 146.218 82.0093 145.848 82.5292 145.244C83.0442 144.646 83.3207 143.846 83.3588 142.845L83.2782 142.845C82.9928 143.415 82.5468 143.85 81.9402 144.151C81.3287 144.451 80.6152 144.6 79.7998 144.597Z" fill="white"/>
  <path d="M73.7687 140.581L73.728 140.804C73.5197 141.948 72.9633 142.809 72.0588 143.387C71.1486 143.97 70.0427 144.142 68.7412 143.903C67.4396 143.665 66.4683 143.112 65.8273 142.244C65.1805 141.381 64.9613 140.378 65.1697 139.235L65.2104 139.011C65.4187 137.868 65.978 137.005 66.8882 136.422C67.7927 135.844 68.8957 135.674 70.1972 135.912C71.4988 136.151 72.4729 136.702 73.1196 137.565C73.7607 138.432 73.9771 139.438 73.7687 140.581ZM72.3088 140.544L72.3496 140.321C72.4984 139.504 72.379 138.797 71.9915 138.2C71.5992 137.602 70.9324 137.216 69.9911 137.044C69.045 136.87 68.2854 136.994 67.7123 137.415C67.1393 137.836 66.7784 138.455 66.6296 139.271L66.5889 139.495C66.44 140.311 66.5594 141.018 66.9469 141.616C67.3344 142.213 68.0012 142.598 68.9473 142.772C69.8886 142.945 70.6482 142.821 71.2261 142.401C71.7991 141.98 72.16 141.361 72.3088 140.544Z" fill="white"/>
  <path d="M62.6392 141.294L62.2698 142.329L55.0119 139.721L55.3812 138.686L58.3451 139.751L60.5588 133.55L61.8891 134.028L59.6754 140.229L62.6392 141.294Z" fill="white"/>
  <path d="M56.3411 131.945L52.6892 138.704L51.4474 138.029L53.8425 133.596C53.9121 133.467 53.9942 133.325 54.0886 133.171C54.1831 133.017 54.2673 132.876 54.3412 132.75L54.2961 132.725C54.1622 132.819 54.0274 132.904 53.8918 132.98C53.7539 133.061 53.6041 133.138 53.4424 133.211L47.4195 135.839L46.1777 135.163L49.8296 128.403L51.0714 129.079L48.6763 133.512C48.6067 133.641 48.5268 133.784 48.4366 133.941C48.3421 134.095 48.2558 134.234 48.1776 134.358L48.2227 134.383C48.3454 134.299 48.479 134.216 48.6235 134.134C48.7637 134.049 48.9168 133.971 49.0828 133.9L55.0993 131.269L56.3411 131.945Z" fill="white"/>
  <path d="M26.1281 111.688C25.6348 111.956 25.113 112.018 24.5627 111.872C24.0124 111.727 23.5922 111.386 23.3021 110.849C23.012 110.312 22.9564 109.772 23.1354 109.23C23.3143 108.688 23.6504 108.283 24.1437 108.015C24.6284 107.751 25.1459 107.692 25.6962 107.838C26.2465 107.983 26.6667 108.324 26.9568 108.861C27.2469 109.398 27.3025 109.938 27.1235 110.48C26.9446 111.022 26.6128 111.424 26.1281 111.688Z" fill="white"/>
  <path d="M17.9253 78.6761L17.4813 78.6261C15.7491 78.431 14.488 77.8025 13.6978 76.7406C12.9077 75.6787 12.5967 74.3956 12.765 72.8914C12.9328 71.3919 13.5192 70.2124 14.5244 69.3527C15.5301 68.4881 16.899 68.1534 18.6312 68.3485L19.0752 68.3985C20.8123 68.5941 22.0756 69.2253 22.8652 70.2921C23.6554 71.354 23.9665 72.6346 23.7988 74.1341C23.631 75.6335 23.0443 76.8155 22.0386 77.68C21.0335 78.5397 19.6624 78.8718 17.9253 78.6761ZM18.0898 77.2058C19.4339 77.3572 20.4878 77.1369 21.2518 76.5448C22.0162 75.9479 22.4601 75.0987 22.5833 73.9972C22.7066 72.8956 22.4611 71.9713 21.8471 71.224C21.2335 70.4719 20.2547 70.0202 18.9107 69.8688L18.4667 69.8188C17.1275 69.668 16.0781 69.8913 15.3185 70.4887C14.5546 71.0808 14.111 71.9275 13.9878 73.0291C13.8645 74.1306 14.1097 75.0574 14.7232 75.8095C15.3324 76.5562 16.3067 77.005 17.6458 77.1558L18.0898 77.2058Z" fill="white"/>
  <path d="M20.9217 66.3754L20.7048 66.3083C19.5945 65.9653 18.8004 65.3239 18.3227 64.3842C17.8403 63.443 17.794 62.3376 18.1836 61.0679C18.5461 59.8869 19.0863 59.0752 19.8044 58.6327C20.5193 58.184 21.2056 58.0613 21.8634 58.2646L21.9054 58.2775L21.4777 59.6709L21.4357 59.6579C20.9972 59.5225 20.5887 59.5802 20.2104 59.8313C19.832 60.0824 19.521 60.6046 19.2774 61.3982C18.9938 62.3224 19.0319 63.0804 19.3917 63.6719C19.7516 64.2635 20.3304 64.6825 21.1281 64.929L21.3451 64.996C22.1428 65.2425 22.8563 65.2227 23.4855 64.9367C24.1147 64.6507 24.5704 64.0479 24.8526 63.1283C25.0976 62.3301 25.1363 61.7211 24.9689 61.3015C24.7968 60.8803 24.4891 60.6013 24.0459 60.4644L24.004 60.4514L24.4316 59.058L24.4736 59.071C25.1314 59.2742 25.6324 59.7637 25.9765 60.5396C26.3175 61.3093 26.3067 62.2846 25.9442 63.4656C25.5546 64.7353 24.8988 65.6238 23.977 66.1311C23.0505 66.637 22.0321 66.7184 20.9217 66.3754Z" fill="white"/>
  <path d="M21.1261 56.2245L20.1386 55.7431L23.4999 48.8018L24.4874 49.2832L23.1148 52.1177L29.0335 55.0029L28.4174 56.2752L22.4987 53.39L21.1261 56.2245Z" fill="white"/>
  <path d="M29.0039 49.9255C28.3509 49.4705 28.0412 48.8411 28.0749 48.0374C28.1086 47.2337 28.4853 46.3119 29.205 45.272L30.5263 43.3629L30.0997 43.0656C29.6509 42.753 29.2346 42.6682 28.8505 42.8113C28.4625 42.9515 28.0559 43.3288 27.6307 43.9431C27.2306 44.5213 27.0091 45.0215 26.9661 45.4439C26.9192 45.8635 27.05 46.1807 27.3585 46.3957L27.4005 46.425L26.5919 47.5933L26.5558 47.5682C25.9549 47.1495 25.67 46.5702 25.7012 45.8302C25.7351 45.0861 26.0842 44.2343 26.7483 43.2747C27.3902 42.3473 28.0717 41.7658 28.7929 41.5303C29.5101 41.2921 30.2172 41.4158 30.9143 41.9014L33.7868 43.9028C34.0472 44.0842 34.3089 44.2338 34.5718 44.3515C34.8308 44.4665 35.0776 44.5432 35.3122 44.5817L35.4083 44.6487L34.6331 45.7689C34.4884 45.7633 34.3166 45.7328 34.1174 45.6774C33.9182 45.6219 33.7324 45.543 33.5598 45.4406C33.7072 45.8111 33.7289 46.2815 33.6251 46.8519C33.5213 47.4223 33.236 48.0448 32.7692 48.7193C32.194 49.5504 31.5819 50.0702 30.9329 50.2786C30.2799 50.4842 29.6369 50.3665 29.0039 49.9255ZM29.7483 48.7213C30.1329 48.9892 30.5104 49.0529 30.8809 48.9123C31.2514 48.7717 31.6395 48.4083 32.0452 47.8221C32.4592 47.2239 32.6771 46.5872 32.699 45.9121C32.7169 45.2342 32.5535 44.7753 32.209 44.5352L31.3376 43.9281L30.1163 45.6927C29.6217 46.4074 29.3406 47.0238 29.2729 47.542C29.2052 48.0602 29.3637 48.4533 29.7483 48.7213Z" fill="white"/>
  <path d="M30.8718 38.0425L31.8513 37.0233L34.1568 39.254L37.2325 36.0539L34.9269 33.8232L35.9065 32.8041L41.4282 38.1464L40.4486 39.1656L38.022 36.8178L34.9464 40.0179L37.373 42.3657L36.3935 43.3849L30.8718 38.0425Z" fill="white"/>
  <path d="M38.1865 30.7019L39.316 29.8519L41.2367 32.4214L44.7833 29.7527L42.8626 27.1832L43.9921 26.3333L48.5921 32.4871L47.4626 33.337L45.4411 30.6326L41.8945 33.3014L43.9161 36.0058L42.7866 36.8557L38.1865 30.7019Z" fill="white"/>
  <path d="M50.5754 31.3191L46.7016 24.6841L47.9203 23.9678L51.7941 30.6028L50.5754 31.3191ZM45.3985 22.8588C45.268 22.6353 45.2249 22.4114 45.2692 22.1872C45.3153 21.9562 45.4667 21.7652 45.7235 21.6143C45.9761 21.4659 46.2141 21.428 46.4374 21.5006C46.6583 21.569 46.8339 21.715 46.9644 21.9384C47.0949 22.1619 47.1359 22.387 47.0873 22.6138C47.0363 22.8363 46.8866 23.0206 46.6383 23.1666C46.3857 23.315 46.1481 23.3584 45.9255 23.2967C45.7046 23.2283 45.5289 23.0823 45.3985 22.8588Z" fill="white"/>
  <path d="M57.6554 30.7879L54.0479 20.6826L55.261 20.2466L55.6973 21.2728L55.718 21.2654C55.8496 20.8497 56.1179 20.4394 56.5229 20.0344C56.9262 19.6248 57.4542 19.3028 58.1067 19.0683C59.2095 18.672 60.2126 18.7007 61.1159 19.1543C62.0176 19.6034 62.6573 20.3567 63.0349 21.4144L63.1112 21.6282C63.4888 22.6859 63.4698 23.6785 63.0544 24.6061C62.6419 25.5274 61.8865 26.1854 60.7883 26.5801C60.1358 26.8146 59.5437 26.9132 59.0119 26.876C58.4802 26.8388 58.0159 26.7073 57.619 26.4816L58.9857 30.3099L57.6554 30.7879ZM57.1487 25.1641C57.4556 25.4429 57.8697 25.6443 58.391 25.7683C58.9106 25.8877 59.4691 25.8401 60.0664 25.6254C60.9671 25.3017 61.5404 24.8311 61.7866 24.2134C62.0373 23.5941 62.0239 22.8958 61.7465 22.1187L61.6701 21.9048C61.3943 21.1323 60.9636 20.5866 60.378 20.2678C59.797 19.9474 59.0562 19.949 58.1556 20.2727C57.5582 20.4873 57.0966 20.8063 56.7707 21.2295C56.4477 21.6465 56.2544 22.0636 56.1908 22.4808L57.1487 25.1641Z" fill="white"/>
  <path d="M65.0545 21.0034L65.0172 20.7795C64.8264 19.6331 65.0585 18.6338 65.7135 17.7814C66.3725 16.9233 67.3546 16.3849 68.6596 16.1662C69.9647 15.9475 71.0654 16.1368 71.9618 16.7341C72.8622 17.3259 73.4078 18.1949 73.5987 19.3412L73.636 19.5652C73.8268 20.7115 73.5927 21.7137 72.9337 22.5718C72.2787 23.4242 71.2986 23.9597 69.9936 24.1785C68.6885 24.3972 67.5858 24.2107 66.6854 23.619C65.789 23.0216 65.2454 22.1498 65.0545 21.0034ZM66.4402 20.541L66.4775 20.7649C66.6139 21.5838 66.9653 22.2081 67.5319 22.6379C68.1032 23.067 68.8609 23.2024 69.8047 23.0442C70.7534 22.8852 71.426 22.5101 71.8226 21.9188C72.2192 21.3275 72.3493 20.6225 72.213 19.8037L72.1757 19.5797C72.0394 18.7609 71.6879 18.1366 71.1213 17.7068C70.5548 17.2769 69.7971 17.1415 68.8485 17.3005C67.9046 17.4587 67.232 17.8338 66.8306 18.4259C66.434 19.0171 66.3039 19.7222 66.4402 20.541Z" fill="white"/>
  <path d="M77.5058 19.2225L77.5023 19.4495C77.4908 20.1965 77.7228 20.83 78.1982 21.3501C78.6787 21.8655 79.4046 22.1307 80.3762 22.1457C81.3331 22.1606 82.0572 21.9154 82.5484 21.4103C83.0445 20.9052 83.2983 20.2792 83.3098 19.5322L83.3133 19.3052C83.3248 18.5582 83.0903 17.927 82.6099 17.4117C82.1345 16.8916 81.4183 16.6241 80.4614 16.6093C79.4898 16.5942 78.756 16.8392 78.2598 17.3443C77.7686 17.8494 77.5173 18.4755 77.5058 19.2225ZM80.8086 15.4646C82.0487 15.4838 83.0222 15.8505 83.729 16.5647C84.436 17.274 84.7807 18.195 84.7633 19.3277L84.7597 19.562C84.7421 20.7044 84.3325 21.6186 83.5309 22.3045C82.7342 22.9856 81.6767 23.3159 80.3585 23.2955C78.9866 23.2742 77.9203 22.911 77.1596 22.2057C76.3989 21.4956 76.0309 20.3374 76.0556 18.7312L76.0627 18.2698C76.0908 16.4487 76.4416 15.0722 77.1151 14.1401C77.7936 13.2081 79.0156 12.6582 80.7811 12.4902C81.9841 12.377 82.6619 12.2825 82.8145 12.2067C82.9671 12.1261 83.0543 12.0176 83.0759 11.8812L84.3355 11.9007C84.2733 12.4516 84.0423 12.8655 83.6425 13.1425C83.2427 13.4147 82.3901 13.6041 81.0846 13.7109C79.6129 13.8297 78.6136 14.1878 78.0868 14.7851C77.5649 15.3777 77.2792 16.1741 77.2296 17.1745L77.3102 17.1757C77.6021 16.6089 78.0531 16.1788 78.6632 15.8855C79.2781 15.5923 79.9933 15.452 80.8086 15.4646Z" fill="white"/>
  <path d="M86.8258 19.5335L86.869 19.3106C87.0902 18.1697 87.6563 17.3152 88.5673 16.747C89.484 16.1749 90.5917 16.0158 91.8903 16.2697C93.189 16.5235 94.1539 17.0878 94.7851 17.9624C95.422 18.8332 95.6298 19.839 95.4086 20.9799L95.3653 21.2028C95.1441 22.3436 94.5751 23.2001 93.6584 23.7722C92.7475 24.3404 91.6427 24.4975 90.344 24.2437C89.0453 23.9898 88.0776 23.4275 87.4407 22.5567C86.8095 21.6821 86.6046 20.6743 86.8258 19.5335ZM88.2851 19.5874L88.2419 19.8103C88.0838 20.6252 88.1952 21.3335 88.5758 21.9353C88.9613 22.538 89.6237 22.9312 90.5629 23.1148C91.507 23.2994 92.2679 23.1844 92.8456 22.77C93.4233 22.3555 93.7912 21.7409 93.9493 20.926L93.9925 20.7031C94.1505 19.8882 94.0392 19.1798 93.6585 18.578C93.2778 17.9763 92.6155 17.5831 91.6714 17.3985C90.7322 17.2149 89.9713 17.3299 89.3887 17.7434C88.811 18.1578 88.4431 18.7725 88.2851 19.5874Z" fill="white"/>
  <path d="M98.017 18.9542L98.398 17.9237L105.626 20.6138L105.245 21.6443L102.293 20.5458L100.01 26.7217L98.6853 26.2286L100.969 20.0527L98.017 18.9542Z" fill="white"/>
  <path d="M104.079 28.2985L107.806 21.5796L109.04 22.2687L106.596 26.6754C106.525 26.8035 106.441 26.9442 106.345 27.0974C106.249 27.2506 106.163 27.3901 106.088 27.5158L106.133 27.5408C106.268 27.4484 106.403 27.3648 106.54 27.29C106.679 27.2109 106.829 27.1356 106.992 27.0641L113.043 24.5038L114.277 25.1928L110.551 31.9118L109.317 31.2227L111.761 26.816C111.832 26.6879 111.913 26.546 112.005 26.3904C112.101 26.2372 112.189 26.0989 112.269 25.9756L112.224 25.9506C112.1 26.0325 111.966 26.114 111.82 26.195C111.679 26.2784 111.525 26.3546 111.359 26.4237L105.313 28.9876L104.079 28.2985Z" fill="white"/>
  <path d="M134.131 48.815C134.627 48.5522 135.149 48.4966 135.698 48.648C136.247 48.7995 136.663 49.1454 136.947 49.6855C137.231 50.2257 137.281 50.7658 137.096 51.3057C136.911 51.8456 136.571 52.247 136.074 52.5098C135.587 52.768 135.069 52.8213 134.52 52.6699C133.971 52.5184 133.555 52.1725 133.271 51.6324C132.987 51.0922 132.937 50.5521 133.122 50.0122C133.307 49.4722 133.643 49.0732 134.131 48.815Z" fill="white"/>
</svg>
